<?xml version="1.0" encoding="UTF-8"?>
<svg version="1.1" xmlns="http://www.w3.org/2000/svg" width="1436" height="1438">
<path d="M0 0 C473.88 0 947.76 0 1436 0 C1436 474.54 1436 949.08 1436 1438 C962.12 1438 488.24 1438 0 1438 C0 963.46 0 488.92 0 0 Z " fill="#000000" transform="translate(0,0)"/>
<path d="M0 0 C473.88 0 947.76 0 1436 0 C1436 474.54 1436 949.08 1436 1438 C962.12 1438 488.24 1438 0 1438 C0 963.46 0 488.92 0 0 Z M207 208 C207 545.92 207 883.84 207 1232 C544.92 1232 882.84 1232 1231 1232 C1231 894.08 1231 556.16 1231 208 C893.08 208 555.16 208 207 208 Z " fill="#000000" transform="translate(0,0)"/>
<path d="M0 0 C337.92 0 675.84 0 1024 0 C1024 337.92 1024 675.84 1024 1024 C686.08 1024 348.16 1024 0 1024 C0 686.08 0 348.16 0 0 Z M52 52 C52 355.6 52 659.2 52 972 C355.6 972 659.2 972 972 972 C972 668.4 972 364.8 972 52 C668.4 52 364.8 52 52 52 Z " fill="#FFFFFF" transform="translate(207,208)"/>
<path d="M0 0 C139.38483965 0 139.38483965 0 163 9 C164.25519694 9.45706255 165.51040548 9.91409322 166.765625 10.37109375 C180.26923873 15.41826654 192.65696088 22.06820572 204 31 C204.90234375 31.69867187 205.8046875 32.39734375 206.734375 33.1171875 C228.12430706 50.09620137 242.70170237 71.45225021 252 97 C252.45826172 98.19302734 252.45826172 98.19302734 252.92578125 99.41015625 C262.34455518 125.25140781 261.66595484 157.09842386 253 183 C252.71382812 183.90621094 252.42765625 184.81242188 252.1328125 185.74609375 C246.55402538 202.35903061 237.32494683 217.71072611 226 231 C225.19949219 231.94746094 224.39898438 232.89492188 223.57421875 233.87109375 C198.29106073 262.67516563 162.42041719 277.59759798 125 282 C83.75 282 42.5 282 0 282 C0 188.94 0 95.88 0 0 Z " fill="#FCFCFC" transform="translate(788,571)"/>
<path d="M0 0 C27.06 0 54.12 0 82 0 C93.47106503 20.64791705 93.47106503 20.64791705 97.4375 28.71484375 C97.88794678 29.62093887 98.33839355 30.527034 98.80249023 31.46058655 C100.20564424 34.28426982 101.6032982 37.11062052 103 39.9375 C104.85124556 43.67723626 106.70531504 47.41555345 108.5625 51.15234375 C109.01729736 52.06757309 109.47209473 52.98280243 109.94067383 53.92576599 C113.32077805 60.70109382 116.82043472 67.40661123 120.36914062 74.09481812 C124.33969894 81.59613149 128.11734148 89.18787449 131.878479 96.79577637 C138.26971732 109.71320813 144.74858217 122.53776433 152 135 C152.40202637 134.19071045 152.80405273 133.3814209 153.21826172 132.54760742 C166.67604412 105.48037859 166.67604412 105.48037859 171.8125 95.875 C176.72664397 86.67615703 181.35222199 77.33516576 186 68 C195.37891476 49.1622406 195.37891476 49.1622406 200.1875 40.125 C207.00695501 27.19460479 213.46241502 14.07516996 220 1 C247.39 1 274.78 1 303 1 C303 93.73 303 186.46 303 282 C281.22 282 259.44 282 237 282 C236.67 224.58 236.34 167.16 236 108 C229.4 120.87 222.8 133.74 216 147 C212.7 153.27 209.4 159.54 206 166 C203.82960293 170.164816 201.66165432 174.33067029 199.5 178.5 C195.70855177 185.8029126 191.90431205 193.09845532 188.0625 200.375 C184.0037763 208.06380331 179.99738211 215.77914634 176 223.5 C168.1140494 238.72804254 160.17392727 253.92424672 152 269 C151.34 269 150.68 269 150 269 C142.54741587 254.75011973 135.13658967 240.47898055 127.75296021 226.19328308 C127.43616302 225.58035904 127.11936584 224.967435 126.79296875 224.3359375 C126.4765744 223.72377884 126.16018005 223.11162018 125.834198 222.48091125 C122.54061965 216.10951529 119.23971072 209.74192574 115.9375 203.375 C115.36330322 202.26785645 114.78910645 201.16071289 114.19750977 200.02001953 C112.46512621 196.67995091 110.73259222 193.33996038 109 190 C101.27498464 175.10829901 93.55445913 160.21431568 85.85180664 145.31103516 C79.24663983 132.53438851 72.62076711 119.76862229 66 107 C65.67 164.75 65.34 222.5 65 282 C43.55 282 22.1 282 0 282 C0 188.94 0 95.88 0 0 Z " fill="#FDFDFD" transform="translate(415,571)"/>
<path d="M0 0 C337.92 0 675.84 0 1024 0 C1024 337.92 1024 675.84 1024 1024 C686.08 1024 348.16 1024 0 1024 C0 686.08 0 348.16 0 0 Z M4 4 C4 339.28 4 674.56 4 1020 C339.28 1020 674.56 1020 1020 1020 C1020 684.72 1020 349.44 1020 4 C684.72 4 349.44 4 4 4 Z " fill="#4A8BE8" transform="translate(207,208)"/>
<path d="M0 0 C59.2925243 0 59.2925243 0 72.375 6.25 C73.03580566 6.55373535 73.69661133 6.8574707 74.37744141 7.17041016 C80.04290899 9.85565622 85.12907015 13.04029852 90 17 C91.26070312 18.01707031 91.26070312 18.01707031 92.546875 19.0546875 C107.3916997 31.69528066 117.54414954 50.0522441 119.22314453 69.59765625 C120.54690816 92.93573348 114.41958066 114.06759879 99 132 C86.38669453 145.49535481 69.82124901 152.4357502 52 156 C34.84 156 17.68 156 0 156 C0 104.52 0 53.04 0 0 Z " fill="#010101" transform="translate(857,634)"/>
<path d="M0 0 C0.33 0 0.66 0 1 0 C1 57.75 1 115.5 1 175 C0.67 175 0.34 175 0 175 C-0.33 119.23 -0.66 63.46 -1 6 C-1.99 6.495 -1.99 6.495 -3 7 C-1.125 1.125 -1.125 1.125 0 0 Z " fill="#141414" transform="translate(651,678)"/>
</svg>
